<?xml version="1.0" encoding="utf-8"?>
<!-- Svg Vector Icons : http://www.onlinewebfonts.com/icon -->
<!DOCTYPE svg PUBLIC "-//W3C//DTD SVG 1.1//EN" "http://www.w3.org/Graphics/SVG/1.1/DTD/svg11.dtd">
<svg version="1.1" xmlns="http://www.w3.org/2000/svg" xmlns:xlink="http://www.w3.org/1999/xlink" x="0px" y="0px" viewBox="0 0 1000 1000" enable-background="new 0 0 1000 1000" xml:space="preserve">
<metadata> Svg Vector Icons : http://www.onlinewebfonts.com/icon </metadata>
<g><g transform="translate(0.000000,511.000000) scale(0.100000,-0.100000)"><path d="M4621.7,4998.3c-782.7-98.1-1469.3-441.4-1998.5-995.2c-457.7-480.2-745.9-1046.3-870.5-1712.4c-47-253.4-49-888.9,0-1144.4c75.6-414.8,194.1-737.7,388.3-1052.4C3851.3-2689.3,5148.9-4790,5157.1-4790c8.2,0,61.3,89.9,122.6,200.2C6303.5-2726.1,7852.5,108.3,7926,253.3c269.7,535.4,380.1,1038.1,353.5,1608.2C8208,3416.7,7098.4,4689.8,5567.8,4969.7C5361.4,5006.5,4817.9,5022.9,4621.7,4998.3z M5574,4550.8c1166.8-245.2,2027.1-1105.5,2286.7-2286.7c63.3-284.1,63.3-866.4,0-1154.6C7660.4,194.1,7086.2-545.7,6272.8-938c-940-453.7-2029.2-378-2901.8,200.2c-412.8,275.9-819.4,745.9-1032,1193.4c-269.7,574.2-335.1,1311.9-173.7,1955.6c292.2,1152.5,1285.4,2029.2,2466.5,2178.4C4866.9,4618.2,5343,4599.9,5574,4550.8z M5921.3-2519.7c-447.5-776.5-819.4-1410-827.6-1408c-20.4,8.2-1734.9,2740.3-1724.7,2748.5c4.1,6.2,81.7-28.6,169.6-73.6c527.2-263.6,1248.6-382.1,1855.5-300.4c414.8,55.2,725.4,149.2,1083,331.1c134.9,67.4,247.2,122.6,251.3,120.6C6730.6-1103.5,6366.8-1741.1,5921.3-2519.7z"/><path d="M4625.8,3988.9c-797-141-1450.9-664.1-1747.2-1397.7c-124.6-310.6-161.4-504.7-161.4-862.4c0-341.3,34.7-541.5,145.1-825.6C3346.5-353.6,4815.8-917.6,6025.6-312.7c1046.3,523.1,1528.5,1784,1101.4,2869.1c-282,715.2-901.2,1246.5-1640.9,1410C5277.7,4011.3,4824,4023.6,4625.8,3988.9z M5110.1,3187.8c-81.7-106.3-110.3-212.5-77.6-284c12.3-26.6,53.1-83.8,92-126.7c175.7-196.2,181.9-347.4,16.3-504.7l-63.4-61.3v108.3c0,83.8-18.4,143-81.7,273.8c-145.1,296.3-124.6,490.4,67.4,627.4C5181.6,3304.3,5191.8,3296.1,5110.1,3187.8z M4789.3,2952.8c-24.5-34.7-49-102.2-53.1-147.1c-8.2-75.6,0-96,73.6-186c128.7-153.3,134.9-241.1,22.5-365.8l-59.3-65.4l-2,79.7c0,53.1-24.5,124.7-71.5,208.4c-112.4,200.3-94,390.3,45,496.6C4826,3032.5,4842.4,3026.4,4789.3,2952.8z M5776.3,2096.6c106.3-30.7,257.5-139,327-235c75.6-108.3,110.4-277.9,79.7-392.4c-45-161.4-134.9-251.3-376-374c-159.4-81.7-230.9-130.8-257.5-175.7c-57.2-94-130.8-110.3-517-110.3c-386.2,0-461.8,18.4-515,120.6c-59.3,112.4-318.8,909.4-318.8,976.8c0,38.8,20.4,87.9,49,122.6l49,57.2l345.4,12.3C5253.1,2117,5698.6,2117,5776.3,2096.6z M5784.4,717.2c8.2-16.3,2.1-45-12.2-61.3c-38.8-45-1657.3-45-1696.1,0c-14.3,16.3-20.4,45-12.3,61.3c10.2,26.6,120.6,30.7,860.3,30.7C5663.9,747.9,5774.2,743.8,5784.4,717.2z"/><path d="M5764,1510.1c-51.1-153.3-89.9-284.1-83.8-288.1c6.1-6.1,69.5,18.4,141,55.2c255.4,124.7,304.5,374,96,482.3L5858,1790L5764,1510.1z"/></g></g>
</svg>