<?xml version="1.0" encoding="utf-8"?>
<!-- Generator: Adobe Illustrator 24.0.1, SVG Export Plug-In . SVG Version: 6.00 Build 0)  -->
<svg version="1.1" id="Layer_1" xmlns="http://www.w3.org/2000/svg" xmlns:xlink="http://www.w3.org/1999/xlink" x="0px" y="0px"
	 viewBox="0 0 1000 1000" style="enable-background:new 0 0 1000 1000;" xml:space="preserve">
<style type="text/css">
	.st0{fill:#684B38;}
	.st1{fill:#FFFFFF;}
	.st2{fill:#C54424;}
	.st3{fill:none;stroke:#684B38;stroke-width:14;stroke-linecap:round;stroke-linejoin:round;stroke-miterlimit:10;}
	.st4{fill:none;stroke:#FFFFFF;stroke-miterlimit:10;}
</style>
<g>
	
		<image style="overflow:visible;opacity:0.7;" width="671" height="853" xlink:href="54DB18BBC98A1567.png"  transform="matrix(1 0 0 1 167.4882 76.4882)">
	</image>
	<g>
		<g>
			<path class="st2" d="M788.3,296.2c-38.2-96.9-122.1-168.9-222.4-191.1c-28.2-6.1-89.7-7.8-116.6-3
				c-108,19.1-196.6,90-236.8,189.4c-16.9,42.1-21.9,68.4-21.9,116.9c0,46.3,4.7,73.4,19.7,111.9c21.3,55.3,56.6,100.6,100.3,133.9
				c6.2,4.8,12.6,9.3,19.2,13.5l15.1,22.5l133.8,199.2c10.2,15.2,32.5,15.2,42.7,0L671,666.5C790.3,587.4,841.6,431.7,788.3,296.2z"
				/>
			<path class="st1" d="M464.5,193.7c-75.7,13.4-137.8,63.1-166,132.8c-11.8,29.5-15.3,47.9-15.3,81.9c0,32.4,3.3,51.4,13.8,78.4
				c46,119.4,185.6,173,300.5,115.5c99.4-49.7,145.2-169.5,104.6-272.6c-26.8-67.9-85.6-118.4-155.9-134
				C526.4,191.6,483.3,190.4,464.5,193.7z"/>
		</g>
	</g>
</g>
<g>
	<circle class="st2" cx="500" cy="347.4" r="64.4"/>
	<path class="st2" d="M500,411.7c-52.2,0-95.4,38.5-102.8,88.7c-1.2,8,5.1,15.2,13.2,15.2h179.1c8.1,0,14.4-7.2,13.2-15.2
		C595.4,450.3,552.2,411.7,500,411.7z"/>
</g>
</svg>
