<svg id="Layer_1" enable-background="new 0 0 512 512" height="512" viewBox="0 0 512 512" width="512" xmlns="http://www.w3.org/2000/svg"><g><path d="m259.61 16.04c-1.2-.03-2.4-.04-3.61-.04s-2.41.01-3.61.04c-120.32 2.45-194.23 133.97-136.25 240.09l126.96 232.39c5.74 9.97 20.06 9.97 25.8 0l126.96-232.39c57.98-106.12-15.93-237.64-136.25-240.09zm-3.61 199.96c-30.93 0-56-25.07-56-56s25.07-56 56-56 56 25.07 56 56-25.07 56-56 56z" fill="#acebe2"/><circle cx="256" cy="160" fill="#f79caf" r="56"/><path d="m259.61 16.04c-1.2-.03-2.4-.04-3.61-.04s-2.41.01-3.61.04c-5.57.11-11.03.5-16.39 1.16 110.49 13.4 175.16 137.72 119.86 238.93l-119.86 219.39 7.1 13c5.74 9.97 20.06 9.97 25.8 0l126.96-232.39c57.98-106.12-15.93-237.64-136.25-240.09z" fill="#98d7ce"/><path d="m256 104c-7.05 0-13.79 1.3-20 3.68 21.06 8.05 36 28.44 36 52.32s-14.94 44.27-36 52.32c6.21 2.38 12.95 3.68 20 3.68 30.93 0 56-25.07 56-56s-25.07-56-56-56z" fill="#e3889b"/><g><path d="m256.001 512c-11.176 0-21.184-5.796-26.77-15.505-.059-.102-.116-.205-.173-.308l-126.962-232.386c-30.306-55.471-29.437-121.312 2.325-176.124 31.073-53.624 86.265-86.385 147.639-87.637 2.622-.054 5.258-.054 7.878 0 61.375 1.252 116.567 34.013 147.641 87.637 31.762 54.812 32.631 120.652 2.325 176.124l-126.962 232.386c-.057.103-.114.206-.173.308-5.585 9.708-15.592 15.505-26.768 15.505zm-.001-480c-1.099 0-2.195.011-3.289.033-50.099 1.022-95.185 27.821-120.604 71.688-26.107 45.055-26.829 99.162-1.93 144.736l125.823 230.3 125.822-230.299c24.899-45.575 24.178-99.682-1.931-144.737-25.419-43.866-70.505-70.666-120.604-71.688-1.091-.022-2.188-.033-3.287-.033z"/></g><g><path d="m256 232c-39.701 0-72-32.299-72-72s32.299-72 72-72 72 32.299 72 72-32.298 72-72 72zm0-112c-22.056 0-40 17.944-40 40s17.944 40 40 40 40-17.944 40-40-17.944-40-40-40z"/></g></g></svg>