<svg height="464pt" viewBox="-56 0 464 464.03428" width="464pt" xmlns="http://www.w3.org/2000/svg"><path d="m352.015625 176.035156c.019531-91.996094-70.8125-168.484375-162.539063-175.519531-91.722656-7.035156-173.394531 57.753906-187.40625 148.675781-14.011718 90.921875 44.359376 177.296875 133.945313 198.203125l40 116.640625 40-116.640625c79.585937-18.671875 135.886719-89.613281 136-171.359375zm0 0" fill="#005e9c"/><path d="m320.015625 175.691406c0 79.527344-64.46875 144-144 144-79.527344 0-144-64.472656-144-144 0-79.53125 64.472656-144 144-144 79.53125 0 144 64.46875 144 144zm0 0" fill="#168fba"/><path d="m248.015625 240.035156h-32c-4.417969 0-8-3.582031-8-8v-64c0-4.417968 3.582031-8 8-8h32c22.09375 0 40 17.90625 40 40 0 22.089844-17.90625 40-40 40zm-24-16h24c13.257813 0 24-10.746094 24-24s-10.742187-24-24-24h-24zm0 0" fill="#de722a"/><g fill="#d8d8d3"><path d="m118.671875 132.472656-13.3125-8.878906 12.363281-18.542969-11.363281-11.359375c-2.695313-2.699218-3.113281-6.921875-1-10.097656l16-24 13.3125 8.878906-12.359375 18.546875 11.359375 11.359375c2.699219 2.695313 3.117187 6.921875 1 10.09375zm0 0"/><path d="m158.671875 132.472656-13.3125-8.878906 12.363281-18.542969-11.363281-11.359375c-2.695313-2.699218-3.113281-6.921875-1-10.097656l16-24 13.3125 8.878906-12.359375 18.546875 11.359375 11.359375c2.699219 2.695313 3.117187 6.921875 1 10.09375zm0 0"/><path d="m198.671875 132.472656-13.3125-8.878906 12.363281-18.542969-11.363281-11.359375c-2.695313-2.699218-3.113281-6.921875-1-10.097656l16-24 13.3125 8.878906-12.359375 18.546875 11.359375 11.359375c2.699219 2.695313 3.117187 6.921875 1 10.09375zm0 0"/></g><path d="m104.015625 152.035156h112v104h-112zm0 0" fill="#f29a2b"/></svg>