<svg height="511pt" viewBox="-61 0 511 511.99955" width="511pt" xmlns="http://www.w3.org/2000/svg"><path d="m390.027344 194.761719c0 68.550781-35.421875 128.828125-88.953125 163.53125-8.066407 5.234375-14.800781 12.265625-19.539063 20.625l-69.945312 123.5625c-.15625.273437-.316406.535156-.496094.800781-7.472656 11.882812-25.128906 11.621094-32.160156-.800781l-69.945313-123.5625c-4.726562-8.351563-11.449219-15.378907-19.503906-20.59375-54.300781-35.1875-89.976563-96.679688-88.964844-166.433594 1.511719-104.859375 87.109375-190.414063 191.96875-191.8710938 6.277344-.0859374 12.496094.1249998 18.628907.6210938 100.152343 8.054687 178.910156 91.886719 178.910156 194.121094zm0 0" fill="#44bfd7"/><path d="m390.027344 194.761719c0 68.550781-35.421875 128.828125-88.953125 163.53125-8.066407 5.234375-14.800781 12.265625-19.539063 20.625l-69.945312 123.5625c-.15625.273437-.316406.535156-.496094.800781-.179688-.265625-.335938-.527344-.496094-.800781l-69.945312-123.5625c-4.726563-8.351563-11.449219-15.378907-19.503906-20.59375-54.300782-35.1875-89.976563-96.679688-88.964844-166.433594 1.445312-100.480469 80.097656-183.226563 178.933594-191.25 100.152343 8.054687 178.910156 91.886719 178.910156 194.121094zm0 0" fill="#7cd2e3"/><path d="m339.070312 194.527344c0 79.441406-64.414062 143.808594-143.808593 143.808594-79.421875 0-143.804688-64.382813-143.804688-143.808594 0-85.367188 74.105469-152.316406 159.636719-142.929688 71.972656 7.886719 127.976562 68.871094 127.976562 142.929688zm0 0" fill="#c2eaf2"/><path d="m339.070312 194.527344c0 74.074218-56.003906 135.058594-127.976562 142.941406-71.96875-7.882812-127.972656-68.867188-127.972656-142.941406 0-74.058594 56.003906-135.042969 127.972656-142.929688 71.972656 7.886719 127.976562 68.871094 127.976562 142.929688zm0 0" fill="#def4f8"/><path d="m102.109375 264.207031v-98.890625c0-6.8125 5.523437-12.335937 12.335937-12.335937h27.589844c8.027344 0 14.597656 6.566406 14.597656 14.59375v94.375c0 8.027343-6.570312 14.597656-14.597656 14.597656h-27.589844c-6.8125 0-12.335937-5.523437-12.335937-12.339844zm0 0" fill="#269ab1"/><path d="m300.3125 185.875v53.40625c0 .429688-.011719.851562-.019531 1.285156-.6875 22.375-19.199219 40.46875-41.722657 40.46875h-82.273437c-10.820313 0-19.664063-8.847656-19.664063-19.664062v-90.507813c0-10.804687 8.84375-19.652343 19.664063-19.652343 19.027344 0 20.113281.65625 22.386719-2.121094l42.175781-50.902344c7.238281-8.792969 20.105469-10.914062 29.445313-4.382812 10.441406 7.292968 12.285156 21.914062 4.351562 31.570312l-13.53125 16.410156c-3.042969 3.800782-.339844 9.425782 4.527344 9.425782 19.144531 0 34.660156 15.515624 34.660156 34.664062zm0 0" fill="#ffb52d"/><path d="m300.3125 185.875v53.40625c0 .429688-.011719.851562-.019531 1.285156h-95.53125c-6.996094 0-12.664063-5.667968-12.664063-12.664062v-76.691406c2.183594 0 4.609375.292968 6.585938-2.121094l42.175781-50.902344c7.238281-8.792969 20.105469-10.914062 29.445313-4.382812 10.441406 7.292968 12.285156 21.914062 4.351562 31.570312l-13.53125 16.410156c-3.042969 3.800782-.339844 9.425782 4.527344 9.425782 19.144531 0 34.660156 15.515624 34.660156 34.664062zm0 0" fill="#ffc04b"/></svg>