<?xml version="1.0" encoding="iso-8859-1"?>
<!-- Generator: Adobe Illustrator 21.0.0, SVG Export Plug-In . SVG Version: 6.00 Build 0)  -->
<svg xmlns="http://www.w3.org/2000/svg" xmlns:xlink="http://www.w3.org/1999/xlink" version="1.1" id="Capa_1" x="0px" y="0px" viewBox="0 0 512 512" style="enable-background:new 0 0 512 512;" xml:space="preserve" width="512" height="512">
<g>
	<g>
		<path style="fill:#FFD844;" d="M256,0C151.23,0,66,85.04,66,189.56c0,52.78,27.48,120.56,81.67,201.48    c40.32,60.19,80.96,105.78,85.46,110.78C238.95,508.29,247.29,512,256,512s17.05-3.71,22.87-10.18c4.5-5,45.13-50.57,85.46-110.78    C418.52,310.12,446,242.34,446,189.56C446,85.04,360.76,0,256,0z M359.57,195.72l-33.59,24.41c-0.43,0.31-0.61,0.86-0.45,1.37    l12.84,39.49c4.25,13.11-0.2,26.81-11.35,34.91c-5.57,4.05-11.96,6.08-18.35,6.08c-6.39,0-12.78-2.03-18.35-6.08l-33.6-24.41    c-0.22-0.15-0.47-0.23-0.72-0.23s-0.5,0.08-0.72,0.23l-33.6,24.41c-11.14,8.1-25.55,8.1-36.7,0c-11.15-8.1-15.61-21.8-11.35-34.91    l12.84-39.49c0.16-0.51-0.02-1.06-0.45-1.37l-33.59-24.41c-11.15-8.1-15.61-21.81-11.35-34.91c4.26-13.11,15.92-21.58,29.7-21.58    h41.53c0.53,0,1-0.34,1.16-0.85l12.83-39.49c4.26-13.11,15.92-21.58,29.7-21.58c6.89,0,13.25,2.12,18.42,5.87    c5.17,3.76,9.15,9.16,11.28,15.71l12.83,39.49c0.16,0.51,0.63,0.85,1.16,0.85h41.53c13.78,0,25.44,8.47,29.7,21.58    C375.18,173.91,370.72,187.62,359.57,195.72z"/>
		<path style="fill:#FFBF00;" d="M446,189.56c0,52.78-27.48,120.56-81.67,201.48c-40.33,60.21-80.96,105.78-85.46,110.78    C273.05,508.29,264.71,512,256,512V271.26c0.25,0,0.5,0.08,0.72,0.23l33.6,24.41c5.57,4.05,11.96,6.08,18.35,6.08    c6.39,0,12.78-2.03,18.35-6.08c11.15-8.1,15.6-21.8,11.35-34.91l-12.84-39.49c-0.16-0.51,0.02-1.06,0.45-1.37l33.59-24.41    c11.15-8.1,15.61-21.81,11.35-34.91c-4.26-13.11-15.92-21.58-29.7-21.58h-41.53c-0.53,0-1-0.34-1.16-0.85L285.7,98.89    c-2.13-6.55-6.11-11.95-11.28-15.71c-5.17-3.75-11.53-5.87-18.42-5.87V0C360.76,0,446,85.04,446,189.56z"/>
	</g>
</g>















</svg>
