<svg height="511pt" viewBox="-61 0 511 511.99955" width="511pt" xmlns="http://www.w3.org/2000/svg"><path d="m390.027344 194.761719c0 68.550781-35.421875 128.828125-88.953125 163.53125-8.066407 5.234375-14.800781 12.265625-19.539063 20.625l-69.945312 123.5625c-.15625.273437-.316406.535156-.496094.800781-7.472656 11.882812-25.128906 11.621094-32.160156-.800781l-69.945313-123.5625c-4.726562-8.351563-11.449219-15.378907-19.503906-20.59375-54.300781-35.1875-89.976563-96.679688-88.964844-166.433594 1.511719-104.859375 87.109375-190.414063 191.96875-191.8710938 6.277344-.0859374 12.496094.1249998 18.628907.6210938 100.152343 8.054687 178.910156 91.886719 178.910156 194.121094zm0 0" fill="#44bfd7"/><path d="m390.027344 194.761719c0 68.550781-35.421875 128.828125-88.953125 163.53125-8.066407 5.234375-14.800781 12.265625-19.539063 20.625l-69.945312 123.5625c-.15625.273437-.316406.535156-.496094.800781-.179688-.265625-.335938-.527344-.496094-.800781l-69.945312-123.5625c-4.726563-8.351563-11.449219-15.378907-19.503906-20.59375-54.300782-35.1875-89.976563-96.679688-88.964844-166.433594 1.445312-100.480469 80.097656-183.226563 178.933594-191.25 100.152343 8.054687 178.910156 91.886719 178.910156 194.121094zm0 0" fill="#7cd2e3"/><path d="m339.070312 194.527344c0 74.074218-56.003906 135.058594-127.976562 142.941406-5.191406.570312-10.480469.867188-15.832031.867188-79.421875 0-143.804688-64.382813-143.804688-143.808594 0-79.410156 64.382813-143.792969 143.804688-143.792969 5.351562 0 10.640625.292969 15.832031.863281 71.972656 7.886719 127.976562 68.871094 127.976562 142.929688zm0 0" fill="#c2eaf2"/><path d="m339.070312 194.527344c0 74.074218-56.003906 135.058594-127.976562 142.941406-71.96875-7.882812-127.972656-68.867188-127.972656-142.941406 0-74.058594 56.003906-135.042969 127.972656-142.929688 71.972656 7.886719 127.976562 68.871094 127.976562 142.929688zm0 0" fill="#def4f8"/><path d="m259.730469 215.480469c-3.894531 3.808593-5.679688 9.285156-4.761719 14.660156l6.609375 38.5c2.320313 13.53125-11.886719 23.84375-24.035156 17.460937l-34.574219-18.175781c-4.824219-2.542969-10.585938-2.542969-15.410156 0l-11.210938 5.886719-23.367187 12.289062c-12.148438 6.382813-26.355469-3.929687-24.03125-17.460937l6.605469-38.5c.917968-5.375-.863282-10.851563-4.757813-14.660156l-27.980469-27.265625c-9.828125-9.582032-4.402344-26.277344 9.183594-28.253906l38.660156-5.613282c5.394532-.78125 10.046875-4.167968 12.464844-9.054687l17.289062-35.03125c6.078126-12.308594 23.621094-12.308594 29.699219 0l8.898438 18.027343 8.390625 17.003907c2.417968 4.886719 7.070312 8.273437 12.464844 9.054687l38.660156 5.613282c13.585937 1.976562 19.007812 18.671874 9.183594 28.253906zm0 0" fill="#ffa90b"/><path d="m259.730469 215.480469c-3.894531 3.808593-5.679688 9.285156-4.761719 14.660156l6.609375 38.5c2.320313 13.53125-11.886719 23.84375-24.035156 17.460937l-34.574219-18.175781c-4.824219-2.542969-10.585938-2.542969-15.410156 0l-11.210938 5.886719c-.230468-1.644531-.210937-3.375.097656-5.171875l6.605469-38.5c.917969-5.375-.863281-10.851563-4.757812-14.660156l-27.980469-27.265625c-9.828125-9.582032-4.402344-26.277344 9.179688-28.253906l38.664062-5.613282c5.390625-.78125 10.046875-4.167968 12.464844-9.054687l8.390625-17.003907 8.390625 17.003907c2.417968 4.886719 7.070312 8.273437 12.464844 9.054687l38.660156 5.613282c13.585937 1.976562 19.007812 18.671874 9.183594 28.253906zm0 0" fill="#ffb52d"/></svg>