<?xml version="1.0" encoding="utf-8"?>
<!-- Generator: Adobe Illustrator 24.1.2, SVG Export Plug-In . SVG Version: 6.00 Build 0)  -->
<svg version="1.1" id="圖層_1" xmlns="http://www.w3.org/2000/svg" xmlns:xlink="http://www.w3.org/1999/xlink" x="0px" y="0px"
	 viewBox="0 0 1920 1080" style="enable-background:new 0 0 1920 1080;" xml:space="preserve">
<style type="text/css">
	.st0{opacity:0.4;}
	.st1{fill:#F4F4F4;}
</style>
<g id="Group_9" transform="translate(-821 -1008)" class="st0">
	<path id="Icon_metro-facebook" class="st1" d="M1269.29,1330.26h-61.52c-8.49,0-15.38,6.89-15.38,15.38v61.52
		c0,8.49,6.89,15.38,15.38,15.38h30.76v-40.37h-11.52v-11.53h11.53v-8.65c0-7.96,6.46-14.42,14.42-14.42l0,0h14.42v11.53h-14.44
		c-1.59,0-2.88,1.29-2.88,2.88v8.65h15.86l-2.88,11.53h-12.99v40.37h19.22c8.49,0,15.38-6.89,15.38-15.38v-61.52
		c0-8.49-6.89-15.38-15.38-15.38H1269.29z"/>
	<g id="Icon_ionic-logo-instagram" transform="translate(893.561 1011)">
		<path id="Path_1" class="st1" d="M612.18,326.95c10.6,0.03,19.19,8.62,19.22,19.22v38.45c-0.03,10.6-8.62,19.19-19.22,19.22
			h-38.45c-10.6-0.03-19.19-8.62-19.22-19.22v-38.45c0.03-10.6,8.62-19.19,19.22-19.22H612.18 M612.18,319.26h-38.45
			c-14.84,0.05-26.87,12.07-26.91,26.91v38.45c0.05,14.84,12.07,26.87,26.91,26.91h38.45c14.84-0.05,26.87-12.07,26.91-26.91v-38.45
			C639.04,331.33,627.02,319.31,612.18,319.26z"/>
		<path id="Path_2" class="st1" d="M617.95,346.18c-3.19,0-5.77-2.58-5.77-5.77c0-3.19,2.58-5.77,5.77-5.77s5.77,2.58,5.77,5.77
			c0,0,0,0,0,0.01c0.01,3.18-2.56,5.76-5.74,5.77C617.96,346.18,617.96,346.18,617.95,346.18z"/>
		<path id="Path_3" class="st1" d="M592.95,350.02c8.49,0,15.38,6.89,15.38,15.38c0,8.49-6.89,15.38-15.38,15.38
			s-15.38-6.89-15.38-15.38C577.58,356.91,584.46,350.02,592.95,350.02 M592.95,342.33c-12.74,0-23.07,10.33-23.07,23.07
			c0,12.74,10.33,23.07,23.07,23.07s23.07-10.33,23.07-23.07C616.02,352.66,605.69,342.34,592.95,342.33z"/>
	</g>
	<path id="Icon_simple-twitter" class="st1" d="M1784.15,1346.03c-3.45,1.52-7.11,2.53-10.86,2.98c3.94-2.37,6.89-6.09,8.31-10.47
		c-3.73,2.17-7.79,3.71-12.02,4.55c-7.14-7.62-19.1-8.02-26.73-0.88c-3.81,3.57-5.98,8.56-5.99,13.79c0,1.45,0.16,2.9,0.49,4.32
		c-15.2-0.73-29.38-7.89-38.99-19.7c-1.69,2.88-2.57,6.17-2.55,9.51c-0.01,6.32,3.14,12.23,8.4,15.74c-3-0.09-5.94-0.9-8.56-2.36
		v0.24c-0.01,9.01,6.34,16.77,15.17,18.56c-2.77,0.75-5.68,0.87-8.5,0.34c2.49,7.71,9.6,12.98,17.7,13.14
		c-6.7,5.24-14.96,8.07-23.46,8.05c-1.5,0-3-0.08-4.5-0.25c8.67,5.55,18.75,8.5,29.05,8.49c29.51,0.22,53.6-23.53,53.82-53.03
		c0-0.24,0-0.49,0-0.73c0-0.8,0-1.61-0.06-2.42c3.72-2.68,6.92-6,9.46-9.81l-0.18-0.08V1346.03z"/>
	<path id="Icon_awesome-line" class="st1" d="M1996.09,1365.73v14.64c0.01,0.36-0.28,0.65-0.64,0.66c-0.01,0-0.01,0-0.02,0h-2.35
		c-0.21,0-0.41-0.1-0.54-0.27l-6.71-9.06v8.69c0.01,0.36-0.28,0.65-0.64,0.66c-0.01,0-0.01,0-0.02,0h-2.35
		c-0.36,0.01-0.65-0.28-0.66-0.64c0-0.01,0-0.01,0-0.02v-14.64c-0.01-0.36,0.28-0.65,0.64-0.66c0.01,0,0.01,0,0.02,0h2.32
		c0.22,0,0.42,0.1,0.54,0.29l6.72,9.06v-8.69c-0.01-0.36,0.28-0.65,0.64-0.66c0.01,0,0.01,0,0.02,0h2.34
		c0.36-0.02,0.67,0.26,0.68,0.62C1996.09,1365.72,1996.09,1365.73,1996.09,1365.73z M1979.2,1365.07h-2.35
		c-0.36-0.01-0.65,0.28-0.66,0.64c0,0.01,0,0.01,0,0.02v14.64c-0.01,0.36,0.28,0.65,0.64,0.66c0.01,0,0.01,0,0.02,0h2.35
		c0.36,0.01,0.65-0.28,0.66-0.64c0-0.01,0-0.01,0-0.02v-14.64C1979.85,1365.37,1979.56,1365.07,1979.2,1365.07L1979.2,1365.07z
		 M1973.53,1377.35h-6.41v-11.62c0.01-0.36-0.28-0.65-0.64-0.66c-0.01,0-0.01,0-0.02,0h-2.35c-0.36-0.01-0.65,0.28-0.66,0.64
		c0,0.01,0,0.01,0,0.02v14.64c-0.01,0.17,0.06,0.34,0.18,0.45c0.12,0.12,0.29,0.18,0.45,0.18h9.42c0.36,0.01,0.65-0.28,0.66-0.64
		c0-0.01,0-0.01,0-0.02v-2.34C1974.17,1377.65,1973.89,1377.36,1973.53,1377.35z M2008.44,1365.07h-9.41c-0.36,0-0.66,0.3-0.66,0.66
		v14.64c0,0.36,0.3,0.66,0.66,0.66h9.41c0.36,0.01,0.65-0.28,0.66-0.64c0-0.01,0-0.01,0-0.02v-2.35c0.01-0.36-0.28-0.65-0.64-0.66
		c-0.01,0-0.01,0-0.02,0h-6.4v-2.47h6.4c0.36,0.01,0.65-0.28,0.66-0.64c0-0.01,0-0.01,0-0.02v-2.37c0.01-0.36-0.28-0.65-0.64-0.66
		c-0.01,0-0.01,0-0.02,0h-6.4v-2.47h6.4c0.36,0.01,0.65-0.28,0.66-0.64c0-0.01,0-0.01,0-0.02v-2.35
		C2009.09,1365.37,2008.8,1365.08,2008.44,1365.07z M2032.32,1347.09v58.76c-0.05,9.25-7.58,16.71-16.83,16.68h-58.76
		c-9.25-0.06-16.71-7.58-16.68-16.83v-58.76c0.06-9.25,7.58-16.71,16.83-16.68h58.76
		C2024.88,1330.31,2032.34,1337.84,2032.32,1347.09z M2019.63,1372.34c0-15.04-15.08-27.27-33.59-27.27
		c-18.52,0-33.59,12.23-33.59,27.27c0,13.47,11.96,24.76,28.1,26.9c3.93,0.84,3.48,2.29,2.59,7.58c-0.14,0.84-0.68,3.32,2.9,1.81
		c9.74-5.13,18.64-11.7,26.4-19.5C2016.92,1384.68,2019.5,1378.66,2019.63,1372.34L2019.63,1372.34z"/>
	<path id="Icon_zocial-youtube" class="st1" d="M2191.72,1399.54c0-3.85,0.21-9.62,0.64-17.32c0.15-3.48,1.6-6.78,4.06-9.25
		c2.5-2.42,5.82-3.82,9.3-3.9c7.13-0.36,17.85-0.54,32.18-0.53c14.33,0,25.06,0.18,32.19,0.53c7.24,0.13,13.12,5.91,13.37,13.15
		c0.35,6.42,0.53,12.19,0.53,17.32c0,5.13-0.17,10.91-0.53,17.32c-0.24,7.24-6.12,13.02-13.37,13.15
		c-7.13,0.35-17.86,0.53-32.19,0.53s-25.06-0.17-32.19-0.52c-3.48-0.09-6.8-1.48-9.3-3.9c-2.46-2.47-3.91-5.77-4.06-9.25
		C2191.94,1409.18,2191.72,1403.4,2191.72,1399.54z M2198.9,1384.47h6.51v34.86h6.31v-34.86h6.52v-5.87h-19.35L2198.9,1384.47z
		 M2205.84,1320.01h6.41l4.06,16.25h0.42l3.85-16.25h6.4l-4.92,15.82c-1.64,5.2-2.46,7.87-2.46,8.02v16.89h-6.29v-16.14
		c-0.12-0.93-0.32-1.84-0.59-2.73c-0.25-0.82-0.57-1.76-0.96-2.83c-0.39-1.07-0.68-1.96-0.91-2.67L2205.84,1320.01z
		 M2218.24,1414.63c0,3.42,1.28,5.13,3.85,5.13c2.63-0.19,5.03-1.56,6.52-3.74v3.32h5.56v-30.04h-5.56v22.9
		c-1.5,1.5-2.6,2.25-3.32,2.25c-0.99,0-1.5-0.68-1.5-2.03v-23.12h-5.56V1414.63L2218.24,1414.63z M2226.68,1353.15v-15.61
		c-0.12-2.13,0.75-4.21,2.35-5.61c1.69-1.36,3.82-2.06,5.99-1.98c2.12-0.09,4.18,0.68,5.72,2.14c1.49,1.5,2.29,3.55,2.19,5.67v15.51
		c0.13,2.22-0.64,4.4-2.14,6.04c-1.61,1.53-3.77,2.32-5.99,2.19c-2.21,0.11-4.37-0.73-5.93-2.3
		C2227.37,1357.55,2226.59,1355.38,2226.68,1353.15z M2232.46,1353.9c0,1.64,0.78,2.46,2.35,2.46c1.64,0,2.46-0.89,2.46-2.67v-16.35
		c0.01-0.62-0.27-1.21-0.75-1.6c-0.47-0.42-1.08-0.65-1.71-0.64c-0.61-0.01-1.19,0.2-1.66,0.59c-0.46,0.38-0.71,0.96-0.68,1.55
		v16.68L2232.46,1353.9z M2239.63,1419.34h5.67v-2.25c1.25,1.7,3.24,2.69,5.35,2.68c3.35,0,5.02-2.21,5.02-6.63v-16.66
		c0-5.06-1.82-7.59-5.47-7.59c-2,0.12-3.83,1.19-4.92,2.88v-13.16h-5.65V1419.34L2239.63,1419.34z M2245.3,1413.67v-18.81
		c0.59-0.69,1.44-1.12,2.35-1.18c1.57,0,2.35,1,2.35,2.99v15.82c0,1.71-0.68,2.57-2.03,2.57c-1.06-0.02-2.05-0.54-2.68-1.39
		L2245.3,1413.67z M2247.76,1356.04v-25.33h5.54v22.99c0,1.35,0.5,2.03,1.5,2.03c0.93,0,2.03-0.75,3.31-2.25v-22.77h5.56v30.04
		h-5.56v-3.32c-1.49,2.18-3.89,3.56-6.52,3.74c-2.56,0-3.85-1.71-3.85-5.13L2247.76,1356.04z M2259.94,1410.89
		c-0.1,2.39,0.62,4.75,2.03,6.68c1.49,1.81,3.76,2.78,6.09,2.62c5.56,0,8.34-3.1,8.34-9.3v-2.25h-5.77c0,0.14,0,0.63,0.05,1.44
		c0.04,0.59,0.02,1.18-0.05,1.76c-0.07,0.34-0.16,0.84-0.27,1.45c-0.05,0.5-0.29,0.96-0.68,1.28c-0.45,0.27-0.97,0.4-1.49,0.37
		c-1.64,0-2.46-1.43-2.46-4.28v-5.66h10.69v-7.7c0.13-2.31-0.57-4.58-1.98-6.41c-1.55-1.66-3.78-2.53-6.04-2.35
		c-2.31-0.11-4.55,0.79-6.15,2.46c-1.56,1.72-2.39,3.99-2.3,6.31L2259.94,1410.89z M2265.71,1400.3v-3.21
		c0-2.21,0.82-3.31,2.46-3.32c1.64,0,2.46,1.1,2.46,3.32v3.21H2265.71z"/>
</g>
</svg>
