<?xml version="1.0" encoding="utf-8"?>
<!-- Generator: Adobe Illustrator 24.1.2, SVG Export Plug-In . SVG Version: 6.00 Build 0)  -->
<svg version="1.1" id="圖層_1" xmlns="http://www.w3.org/2000/svg" xmlns:xlink="http://www.w3.org/1999/xlink" x="0px" y="0px"
	 viewBox="0 0 1920 1080" style="enable-background:new 0 0 1920 1080;" xml:space="preserve">
<style type="text/css">
	.st0{fill:#FFFFFF;}
</style>
<g>
	<path class="st0" d="M1415.58,594.23h-13.93c2.01,0.7,2.55,0.85,3.1,1.08c-0.23,0.54-0.85,0.77-1.94,0.77
		c-4.49,12.7-10.61,22.76-18.73,30.88c8.75,7.28,19.51,12.62,32.44,15.56c-1.24,1.24-2.86,3.56-3.72,5.18
		c-13.24-3.41-24.07-9.06-32.98-16.87c-8.75,7.35-19.51,12.77-32.67,16.8c-0.54-1.31-2.01-3.48-3.02-4.72
		c12.7-3.64,23.22-8.75,31.74-15.79c-8.36-8.59-14.71-19.28-19.28-31.89l3.17-1.01h-14.94v-5.11h32.44v-13.55l6.89,0.47
		c-0.08,0.54-0.54,0.93-1.55,1.08v12h32.98V594.23z M1361.93,594.23c4.03,11.3,10.06,21.13,18.19,29.11
		c7.66-7.66,13.47-17.19,17.57-29.11H1361.93z"/>
	<path class="st0" d="M1521.88,601.43h32.28v4.26h-69.51v-4.26h31.97v-5.73h-23.84v-4.1h23.84v-5.57h-27.4v-4.18h27.4v-6.35
		l6.81,0.46c-0.08,0.54-0.54,0.93-1.55,1.08v4.8h27.95v4.18h-27.95v5.57h23.77v4.1h-23.77V601.43z M1542.17,610.8V642
		c0,5.72-2.86,5.72-15.71,5.72c-0.31-1.24-1.08-3.1-1.78-4.33c2.79,0.08,5.5,0.16,7.51,0.16c4.26,0,4.72,0,4.72-1.55v-7.2h-35.07
		v12.93h-5.11V610.8H1542.17z M1536.9,614.9h-35.07v5.96h35.07V614.9z M1501.84,630.93h35.07v-6.19h-35.07V630.93z"/>
	<path class="st0" d="M1638.03,623.49l8.98-3.56l1.01,4.49c-8.05,3.72-16.64,7.36-22.06,9.67c0,0.62-0.31,1.09-0.85,1.32l-2.71-5.88
		c2.94-1.01,6.66-2.48,10.68-4.03v-25.7h-9.37v-4.95h9.37v-18.5l6.5,0.46c-0.08,0.54-0.54,0.85-1.55,1.01v17.03h8.75v4.95h-8.75
		V623.49z M1658.31,635.88c0,4.26,1.01,5.26,6.43,5.26h19.74c4.64,0,5.42-2.17,6.04-11.46c1.24,0.93,3.25,1.78,4.72,2.09
		c-0.85,10.68-2.55,14.09-10.68,14.09h-19.97c-8.75,0-11.22-1.93-11.22-10.06v-26.09l-7.82,3.33l-2.01-4.64l9.83-4.18v-21.21
		l6.5,0.47c-0.08,0.54-0.54,0.93-1.55,1.08v17.5l11.22-4.8v-21.6l6.43,0.39c-0.08,0.54-0.46,0.93-1.47,1.08v18.04l12.39-5.34
		l1.08-0.85l4.26,1.55c-0.08,0.31-0.39,0.62-0.77,0.85c0,14.71-0.23,26.94-0.85,29.88c-0.7,4.72-3.33,5.49-11.53,5.49
		c-0.23-1.47-0.62-3.41-1.24-4.64c1.94,0.15,4.64,0.15,5.5,0.15c1.24,0,2.09-0.39,2.48-2.24c0.46-1.94,0.62-11.54,0.62-24.54
		l-11.92,5.11v29.73h-4.95v-27.56l-11.22,4.8V635.88z"/>
	<path class="st0" d="M1765.55,578.91h65.33v68.51h-5.03v-3.1h-55.43v3.1h-4.88V578.91z M1770.42,639.75h55.43V583.4h-55.43V639.75z
		 M1800.15,603.37h21.91v3.41h-47.68v-3.41h21.21v-3.87h-13.08v-12.16h31.2v12.16h-13.55V603.37z M1779.95,635.26v-24.93h36.31
		v24.93H1779.95z M1784.2,613.82v17.96h27.56v-17.96H1784.2z M1786.91,590.67v5.57h22.22v-5.57H1786.91z M1789.62,628.21v-10.84
		h16.8v10.84H1789.62z M1793.03,620.32v4.95h9.83v-4.95H1793.03z"/>
</g>
<g>
	<path class="st0" d="M684.51,377.15h94.55v-84.03h37.36v204.04h-37.36v-88.76h-94.55v88.76h-37.36V293.12h37.36V377.15z"/>
	<path class="st0" d="M865.22,497.16V293.12h37.36v204.04H865.22z"/>
	<path class="st0" d="M1007.8,418.17c-3.36,0-6.66-0.05-9.91-0.15c-3.25-0.1-6.3-0.31-9.15-0.61v79.76h-37.36V293.12h58.86
		c9.86,0,18.48,0.44,25.85,1.3c7.37,0.86,13.95,2.16,19.75,3.89c13.93,4.27,24.65,11.08,32.18,20.44
		c7.52,9.35,11.29,21.25,11.29,35.68c0,9.86-2.04,18.73-6.1,26.61c-4.07,7.88-10.01,14.56-17.84,20.05
		c-7.83,5.49-17.39,9.71-28.67,12.66C1035.4,416.7,1022.44,418.17,1007.8,418.17z M988.74,385.99c2.14,0.31,4.85,0.53,8.16,0.69
		c3.3,0.15,6.73,0.23,10.29,0.23c10.07,0,18.5-0.81,25.32-2.44c6.81-1.63,12.3-3.89,16.47-6.79c4.17-2.9,7.17-6.41,9-10.52
		c1.83-4.12,2.75-8.62,2.75-13.49c0-6-1.37-11.18-4.12-15.55c-2.75-4.37-7.53-7.78-14.34-10.22c-3.56-1.22-7.96-2.11-13.19-2.67
		c-5.24-0.56-11.67-0.84-19.29-0.84h-21.04V385.99z"/>
	<path class="st0" d="M1239.29,438.61c0-5.19-1.27-9.38-3.81-12.58c-2.54-3.2-6-5.82-10.37-7.85c-4.37-2.03-9.28-3.68-14.72-4.96
		c-5.44-1.27-11.16-2.51-17.16-3.73c-7.93-1.73-15.51-3.79-22.72-6.18c-7.22-2.39-13.57-5.69-19.06-9.91
		c-5.49-4.22-9.86-9.58-13.11-16.09c-3.25-6.51-4.88-14.64-4.88-24.4c0-10.77,1.88-20.15,5.64-28.13
		c3.76-7.98,8.87-14.59,15.33-19.82c6.45-5.24,14.03-9.15,22.72-11.74c8.69-2.59,18.48-3.89,29.36-3.89
		c10.88,0,21.81,1.07,32.79,3.2c10.98,2.14,20.43,4.88,28.36,8.23v32.02c-10.57-4.17-20.72-7.19-30.42-9.07
		c-9.71-1.88-18.83-2.82-27.37-2.82c-12.3,0-21.78,2.24-28.44,6.71c-6.66,4.48-9.99,11.19-9.99,20.13c0,5.18,1.09,9.45,3.28,12.81
		c2.19,3.36,5.16,6.12,8.92,8.31c3.76,2.19,8.08,3.94,12.96,5.26c4.88,1.32,10.06,2.54,15.55,3.66c8.64,1.83,16.9,3.94,24.78,6.33
		c7.88,2.39,14.87,5.72,20.97,9.99c6.1,4.27,10.93,9.84,14.49,16.7c3.56,6.86,5.34,15.63,5.34,26.31c0,10.98-2.03,20.49-6.1,28.52
		c-4.07,8.03-9.84,14.67-17.31,19.9c-7.47,5.24-16.55,9.12-27.22,11.67c-10.68,2.54-22.37,3.81-35.08,3.81
		c-11.08,0-21.98-1.09-32.71-3.28c-10.73-2.19-19.65-5.26-26.76-9.22V456.9c10.07,4.37,19.87,7.55,29.43,9.53
		c9.55,1.98,19.42,2.97,29.58,2.97c5.9,0,11.69-0.48,17.39-1.45c5.69-0.96,10.8-2.62,15.33-4.96c4.52-2.34,8.16-5.51,10.9-9.53
		C1237.92,449.46,1239.29,444.5,1239.29,438.61z"/>
	<path class="st0" d="M1402.62,497.16h-37.36V324.38h-65.88v-31.26h168.97v31.26h-65.73V497.16z"/>
	<path class="st0" d="M1534.68,465.9h100.34v31.26h-137.7V293.12h132.22v31.26h-94.85v52.77h81.43v31.26h-81.43V465.9z"/>
	<path class="st0" d="M1825.65,354.43c0,14.23-3.94,26.31-11.82,36.22c-7.88,9.91-20.05,17.26-36.52,22.03v0.61l60.7,83.87h-44.84
		l-55.51-78.99h-25.62v78.99h-37.36V293.12h62.07c10.27,0,19.82,0.59,28.67,1.75c8.84,1.17,16.42,2.92,22.72,5.26
		c11.99,4.58,21.25,11.36,27.75,20.36C1822.39,329.49,1825.65,340.8,1825.65,354.43z M1730.49,386.91c8.54,0,15.78-0.38,21.73-1.14
		c5.95-0.76,10.95-1.91,15.02-3.43c7.52-2.85,12.73-6.74,15.63-11.67c2.9-4.93,4.35-10.6,4.35-17.01c0-5.49-1.14-10.34-3.43-14.56
		c-2.29-4.22-6.18-7.55-11.67-9.99c-3.56-1.62-8.03-2.82-13.42-3.58c-5.39-0.76-12.05-1.14-19.98-1.14h-26.69v62.52H1730.49z"/>
</g>
<path class="st0" d="M54,683.98c6.28-3.61,12.52-7.31,18.92-10.72c3.19-1.72,6.35-3.51,9.57-5.18l9.68-4.98
	c3.21-1.69,6.51-3.21,9.76-4.83c3.26-1.59,6.51-3.22,9.82-4.71l9.89-4.58c3.31-1.49,6.66-2.9,9.99-4.36l5-2.17l5.04-2.07l10.1-4.12
	c6.79-2.61,13.55-5.3,20.41-7.73c13.66-5.02,27.54-9.44,41.5-13.6l10.49-3.05l10.55-2.84c3.51-0.98,7.05-1.85,10.59-2.72
	c3.54-0.86,7.07-1.79,10.63-2.57c7.12-1.57,14.23-3.19,21.39-4.56l5.36-1.07c1.77-0.36,3.62-0.72,5.59-1
	c1.97-0.28,4.04-0.49,6.25-0.48c2.21,0.03,4.58,0.29,6.99,1.03c2.41,0.74,4.78,2.07,6.73,3.74c1.97,1.71,3.6,3.88,4.67,6.1
	c1.11,2.23,1.74,4.46,2.18,6.59c0.44,2.14,0.64,4.17,0.79,6.13c0.28,3.92,0.27,7.56,0.48,10.94c0.1,1.68,0.25,3.29,0.5,4.76
	c0.25,1.44,0.61,2.85,1.09,4.21c1.88,5.44,5.81,10.06,10.94,13.51c5.12,3.46,11.29,5.8,17.69,7.15c6.41,1.34,13.11,1.76,19.64,1.22
	c1.63-0.14,3.26-0.34,4.86-0.6c1.63-0.29,3.35-0.61,5.01-0.96c3.34-0.75,6.67-1.55,9.96-2.57c6.6-1.96,13.06-4.5,19.43-7.36
	c6.37-2.85,12.63-6.1,18.83-9.54c12.41-6.89,24.52-14.68,37.01-22.22c6.24-3.77,12.57-7.51,19.07-11.05
	c3.24-1.78,6.54-3.5,9.87-5.17c1.66-0.84,3.36-1.63,5.04-2.44l5.01-2.32c13.41-6.1,27.25-11.55,41.79-15.52
	c7.27-1.97,14.73-3.53,22.43-4.37c7.68-0.83,15.67-0.92,23.74,0.55c4.03,0.77,8.08,1.92,11.97,3.65c3.89,1.73,7.64,3.98,10.93,6.81
	c3.32,2.79,6.2,6.08,8.52,9.63c2.34,3.54,4.18,7.31,5.6,11.14c1.42,3.83,2.44,7.72,3.18,11.6c0.21,0.97,0.34,1.94,0.5,2.91
	c0.17,0.97,0.3,1.94,0.41,2.9c0.26,1.9,0.44,3.97,0.55,5.85c0.42,7.54,0.49,14.61,1.08,21.54c0.29,3.44,0.69,6.82,1.32,9.99
	c0.62,3.14,1.53,6.15,2.69,8.2l0.21,0.38l0.22,0.32c0.14,0.24,0.29,0.4,0.42,0.58c0.09,0.14,0.41,0.47,0.62,0.71
	c0.23,0.27,0.5,0.51,0.74,0.77c1.02,1.01,2.12,1.94,3.33,2.8c2.4,1.72,5.15,3.14,8.12,4.31c5.95,2.37,12.68,3.74,19.65,4.86
	c6.93,1.09,13.97,1.82,21.08,2.38c14.22,1.12,28.6,1.54,42.99,1.79c14.4,0.21,28.82,0.15,43.25-0.08
	c57.74-0.98,115.53-4.41,173.25-8.45c28.86-2.07,57.7-4.45,86.52-7.1c28.82-2.59,57.63-5.43,86.39-8.65
	c28.76-3.26,57.51-6.66,86.16-10.78c7.16-1.03,14.32-2.09,21.47-3.22c7.15-1.1,14.29-2.26,21.42-3.51c7.13-1.22,14.24-2.57,21.34-4
	c7.09-1.45,14.17-2.98,21.17-4.82c-13.88,4.17-28.04,7.35-42.22,10.35c-14.19,2.99-28.44,5.62-42.72,8.09
	c-28.57,4.93-57.23,9.28-85.96,13.17c-28.72,3.91-57.49,7.46-86.3,10.73c-28.81,3.2-57.66,6.12-86.53,8.75
	c-28.88,2.62-57.78,4.99-86.73,6.85c-28.95,1.88-57.93,3.41-86.98,4.28c-14.52,0.43-29.06,0.69-43.63,0.67
	c-7.28-0.01-14.57-0.09-21.88-0.32c-7.3-0.2-14.61-0.53-21.95-1.04c-7.33-0.5-14.71-1.2-22.1-2.27c-7.32-1.06-14.92-2.38-22.52-5.22
	c-3.78-1.43-7.55-3.28-11.08-5.73c-1.76-1.22-3.45-2.6-5.03-4.12c-0.39-0.39-0.79-0.76-1.16-1.17c-0.39-0.42-0.72-0.73-1.18-1.31
	c-0.44-0.53-0.86-1.06-1.21-1.59l-0.54-0.8l-0.47-0.8c-1.23-2.13-2.07-4.22-2.75-6.26c-0.67-2.04-1.18-4.04-1.59-6
	c-0.81-3.93-1.29-7.75-1.65-11.52c-0.71-7.51-0.85-14.92-1.32-21.84c-0.5-6.62-1.69-13.29-3.93-19.18
	c-2.25-5.89-5.55-11.06-10.04-14.74c-4.45-3.75-10.09-6.05-16.27-7.16c-6.2-1.09-12.85-1.08-19.54-0.33
	c-6.7,0.74-13.46,2.16-20.16,3.99c-13.42,3.68-26.6,8.93-39.56,14.76c-25.8,11.33-49.21,28.13-75.16,42.32
	c-12.95,7.08-26.62,13.51-41.26,17.68c-3.64,1.08-7.37,1.93-11.1,2.71c-1.89,0.36-3.73,0.69-5.67,1c-1.97,0.3-3.95,0.51-5.93,0.65
	c-7.9,0.54-15.81-0.04-23.54-1.82c-7.71-1.79-15.32-4.75-22.14-9.53c-3.39-2.4-6.56-5.26-9.23-8.65c-2.68-3.37-4.82-7.28-6.18-11.43
	c-0.68-2.07-1.16-4.2-1.47-6.33c-0.3-2.11-0.42-4.12-0.49-6.05c-0.13-3.86-0.03-7.46-0.19-10.77c-0.15-3.29-0.58-6.32-1.55-8.39
	c-0.47-1.06-1.06-1.84-1.79-2.54c-0.79-0.69-1.62-1.22-2.65-1.58c-1.05-0.36-2.3-0.57-3.71-0.62c-1.41-0.05-2.96,0.05-4.58,0.24
	c-1.62,0.19-3.33,0.47-5.12,0.79l-5.31,0.92c-7.1,1.17-14.15,2.58-21.21,3.95c-3.53,0.69-7.04,1.49-10.56,2.21
	c-3.52,0.73-7.05,1.47-10.54,2.31l-10.52,2.43l-10.47,2.64c-3.5,0.85-6.97,1.81-10.44,2.77c-3.47,0.97-6.96,1.87-10.41,2.89
	l-10.36,3.07c-1.73,0.5-3.45,1.03-5.17,1.58l-5.16,1.61c-6.9,2.09-13.71,4.46-20.56,6.73l-10.2,3.63l-5.1,1.82l-5.06,1.92
	c-13.53,5.04-26.91,10.52-40.17,16.28C80.09,671.4,67.01,677.6,54,683.98z"/>
<g>
	<g>
		<path class="st0" d="M398.94,599.76l-54.27-44.4l-26.44,24.22c24.61,35.18,42.86,60.16,39.03,69.09
			C357.25,648.67,374.82,629.2,398.94,599.76z"/>
	</g>
	<g>
		<path class="st0" d="M394.07,507.48c0.05,1.55-0.53,3.12-1.77,4.25l-39.39,36.07l53.01,43.37c14.94-18.47,31.8-40.13,48.31-62.99
			L394.07,507.48z"/>
	</g>
	<g>
		<path class="st0" d="M336.69,418.62c-20.72-20.37-33.59-48.7-33.59-80.06c0-62,50.26-112.27,112.27-112.27
			s112.27,50.26,112.27,112.27c0,62-50.26,112.27-112.27,112.27c-18.17,0-35.31-4.34-50.49-12l-36.71,34.28l132.77,45.69
			c39.43-55.76,75.04-117.02,75.04-156.42c0-88.27-71.56-159.83-159.83-159.83s-169.94,72.14-159.83,159.83
			c5.1,44.25,23.03,87.77,44.49,127.09L336.69,418.62z"/>
	</g>
	<g>
		<path class="st0" d="M319.02,481.65l-40.66,37.98c11.28,18.33,22.82,35.41,33.49,50.79l72.41-66.32L319.02,481.65z"/>
	</g>
</g>
</svg>
